<svg xmlns="http://www.w3.org/2000/svg" width="900" height="270" viewBox="0 0 900 270" role="img" aria-labelledby="title desc">
  <title id="title">Prapakorn's engineering profile snapshot</title>
  <desc id="desc">Computer Engineering at RMUTT, focused on AI, RAG, AIoT, Python and TypeScript.</desc>
  <defs>
    <linearGradient id="accent" x1="0" y1="0" x2="1" y2="1">
      <stop offset="0" stop-color="#00d4ff"/>
      <stop offset="1" stop-color="#2f81f7"/>
    </linearGradient>
    <filter id="glow" x="-30%" y="-30%" width="160%" height="160%">
      <feGaussianBlur stdDeviation="3" result="blur"/>
      <feMerge><feMergeNode in="blur"/><feMergeNode in="SourceGraphic"/></feMerge>
    </filter>
  </defs>
  <rect width="900" height="270" rx="16" fill="#0d1117"/>
  <rect x="1" y="1" width="898" height="268" rx="15" fill="none" stroke="#30363d" stroke-width="2"/>
  <path d="M30 55H870" stroke="#30363d"/>
  <circle cx="32" cy="29" r="5" fill="#00d4ff" filter="url(#glow)"/>
  <text x="50" y="36" fill="#f0f6fc" font-family="Segoe UI, Arial, sans-serif" font-size="20" font-weight="700">ENGINEERING SNAPSHOT</text>
  <text x="868" y="35" fill="#8b949e" text-anchor="end" font-family="Consolas, monospace" font-size="12">MRBEER19 // RMUTT</text>

  <g transform="translate(28 77)">
    <rect width="260" height="128" rx="12" fill="#161b22" stroke="#30363d"/>
    <path d="M0 5Q0 0 5 0H255Q260 0 260 5" stroke="url(#accent)" stroke-width="3" fill="none"/>
    <text x="130" y="55" fill="url(#accent)" text-anchor="middle" font-family="Consolas, monospace" font-size="34" font-weight="700">06</text>
    <text x="130" y="82" fill="#f0f6fc" text-anchor="middle" font-family="Segoe UI, Arial, sans-serif" font-size="15" font-weight="600">PUBLIC REPOSITORIES</text>
    <text x="130" y="105" fill="#8b949e" text-anchor="middle" font-family="Consolas, monospace" font-size="11">projects with visible engineering work</text>
  </g>

  <g transform="translate(320 77)">
    <rect width="260" height="128" rx="12" fill="#161b22" stroke="#30363d"/>
    <path d="M0 5Q0 0 5 0H255Q260 0 260 5" stroke="url(#accent)" stroke-width="3" fill="none"/>
    <text x="130" y="52" fill="#f0f6fc" text-anchor="middle" font-family="Consolas, monospace" font-size="25" font-weight="700">AI · RAG · AIoT</text>
    <text x="130" y="82" fill="#f0f6fc" text-anchor="middle" font-family="Segoe UI, Arial, sans-serif" font-size="15" font-weight="600">CURRENT FOCUS</text>
    <text x="130" y="105" fill="#8b949e" text-anchor="middle" font-family="Consolas, monospace" font-size="11">intelligent and observable systems</text>
  </g>

  <g transform="translate(612 77)">
    <rect width="260" height="128" rx="12" fill="#161b22" stroke="#30363d"/>
    <path d="M0 5Q0 0 5 0H255Q260 0 260 5" stroke="url(#accent)" stroke-width="3" fill="none"/>
    <text x="130" y="52" fill="#f0f6fc" text-anchor="middle" font-family="Consolas, monospace" font-size="21" font-weight="700">PYTHON + TYPESCRIPT</text>
    <text x="130" y="82" fill="#f0f6fc" text-anchor="middle" font-family="Segoe UI, Arial, sans-serif" font-size="15" font-weight="600">PRIMARY STACK</text>
    <text x="130" y="105" fill="#8b949e" text-anchor="middle" font-family="Consolas, monospace" font-size="11">from data pipelines to interfaces</text>
  </g>

  <path d="M30 224H870" stroke="#30363d"/>
  <text x="450" y="250" fill="#8b949e" text-anchor="middle" font-family="Consolas, monospace" font-size="13">COMPUTER ENGINEERING @ RMUTT  //  BUILD · MEASURE · IMPROVE</text>
</svg>
